<?xml version="1.0" encoding="UTF-8"?>
<svg width="1440px" height="1024px" viewBox="0 0 1440 1024" version="1.1" xmlns="http://www.w3.org/2000/svg" xmlns:xlink="http://www.w3.org/1999/xlink">
    <!-- Generator: Sketch 52.6 (67491) - http://www.bohemiancoding.com/sketch -->
    <title>Background</title>
    <desc>Created with Sketch.</desc>
    <defs>
        <linearGradient x1="3.78029536%" y1="59.6464754%" x2="59.913062%" y2="70.5302071%" id="linearGradient-1">
            <stop stop-color="#1CD8D2" offset="0%"></stop>
            <stop stop-color="#93EDC7" offset="100%"></stop>
        </linearGradient>
        <path d="M668.491571,-29.4180523 L1807.60684,-14.1299 C1828.54979,-13.8488231 1845.72973,2.54022121 1846.99679,23.4466925 L1901.9615,930.363221 C1903.29792,952.41415 1886.50549,971.373344 1864.45456,972.709766 C1862.4599,972.830655 1860.45898,972.8019 1858.46861,972.623742 L698.842015,868.825535 C678.855461,867.036538 663.28757,850.715958 662.443557,830.667255 L627.990174,12.2607807 C627.060991,-9.81105954 644.200501,-28.4570731 666.272341,-29.3862563 C667.011648,-29.4173798 667.751676,-29.4279825 668.491571,-29.4180523 Z" id="path-2"></path>
        <filter x="-2.5%" y="-4.7%" width="109.9%" height="111.9%" filterUnits="objectBoundingBox" id="filter-3">
            <feOffset dx="35" dy="12" in="SourceAlpha" result="shadowOffsetOuter1"></feOffset>
            <feGaussianBlur stdDeviation="14" in="shadowOffsetOuter1" result="shadowBlurOuter1"></feGaussianBlur>
            <feColorMatrix values="0 0 0 0 0.415407624   0 0 0 0 0.773782951   0 0 0 0 0.728388743  0 0 0 0.509057971 0" type="matrix" in="shadowBlurOuter1"></feColorMatrix>
        </filter>
    </defs>
    <g id="Background" stroke="none" stroke-width="1" fill="none" fill-rule="evenodd">
        <g id="Rectangle" transform="translate(1265.004394, 471.713591) rotate(47.000000) translate(-1265.004394, -471.713591) ">
            <use fill="black" fill-opacity="1" filter="url(#filter-3)" xlink:href="#path-2"></use>
            <use fill="url(#linearGradient-1)" fill-rule="evenodd" xlink:href="#path-2"></use>
        </g>
    </g>
</svg>