<?xml version="1.0" encoding="UTF-8" standalone="no"?>
<!DOCTYPE svg PUBLIC "-//W3C//DTD SVG 1.1//EN" "http://www.w3.org/Graphics/SVG/1.1/DTD/svg11.dtd">
<svg width="100%" height="100%" viewBox="0 0 1800 1350" version="1.1" xmlns="http://www.w3.org/2000/svg" xmlns:xlink="http://www.w3.org/1999/xlink" xml:space="preserve" xmlns:serif="http://www.serif.com/" style="fill-rule:evenodd;clip-rule:evenodd;stroke-linecap:round;stroke-linejoin:round;stroke-miterlimit:2;">
    <g transform="matrix(-1.44397,0.00529077,-0.00471612,-1.28714,1301.15,1582.58)">
        <path d="M314.982,627.101L682.387,628.428L676.789,1040.53L313.32,1038.73" style="fill:none;stroke:rgb(88,11,242);stroke-width:198px;"/>
        <path d="M314.982,627.101L682.387,628.428L676.789,1040.53L313.32,1038.73" style="fill:none;stroke:rgb(28,216,210);stroke-width:127.94px;"/>
        <path d="M314.982,627.101L682.387,628.428L676.789,1040.53L313.32,1038.73" style="fill:none;stroke:rgb(147,237,199);stroke-width:48.74px;"/>
        <path d="M314.982,627.101L682.387,628.428L676.789,1040.53L313.32,1038.73" style="fill:none;stroke:black;stroke-width:10.66px;stroke-miterlimit:1.5;"/>
    </g>
    <g transform="matrix(1.22608,0,0,1.14047,670.505,-309.776)">
        <path d="M275.554,723.516L680.209,720.636L256.364,1216.97L689.444,1214.49" style="fill:none;stroke:rgb(88,11,242);stroke-width:228.74px;"/>
        <path d="M275.554,723.516L680.209,720.636L256.364,1216.97L689.444,1214.49" style="fill:none;stroke:rgb(28,216,210);stroke-width:147.8px;"/>
        <path d="M275.554,723.516L680.209,720.636L256.364,1216.97L689.444,1214.49" style="fill:none;stroke:rgb(147,237,199);stroke-width:56.3px;"/>
        <path d="M275.554,723.516L680.209,720.636L256.364,1216.97L689.444,1214.49" style="fill:none;stroke:black;stroke-width:12.32px;stroke-miterlimit:1.5;"/>
    </g>
</svg>
