<?xml version="1.0" encoding="utf-8"?>
<!-- Generator: Adobe Illustrator 19.0.0, SVG Export Plug-In . SVG Version: 6.00 Build 0)  -->
<svg version="1.1" id="Layer_1" xmlns="http://www.w3.org/2000/svg" xmlns:xlink="http://www.w3.org/1999/xlink" x="0px" y="0px"
	 viewBox="0 0 1000 1000" style="enable-background:new 0 0 1000 1000;" xml:space="preserve">
<style type="text/css">
	.st0{fill:#3A393A;}
	.st1{font-family:'OctinVintageBRg-Regular';}
	.st2{font-size:500px;}
	.st3{fill:#535253;}
</style>
<text id="XMLID_1_" transform="matrix(1 0 0 1 238.2545 661.4988)" class="st0 st1 st2">CZ</text>
<g id="XMLID_2_">
	<g id="XMLID_71_">
		<g id="XMLID_3_">
			<g id="XMLID_4_">
				<g id="XMLID_5_">
					<path id="XMLID_6_" class="st3" d="M868.3,500c0.9,1.2,2.8,0.5,2.4-2.8l-3.4-2.4L868.3,500z"/>
					<path id="XMLID_7_" class="st3" d="M873.7,477.1c-1.9-3.9-5.1-8.2-7.9-5.5c3.5,3.7,2.2,4.7,6.3,8.7c0.5,3.4-0.9,6-2.1,5.4
						c0.9,1.2-0.6,5.3,1.5,7c1.2-2.2,1.8-4.8,1.8-7.5c0-1.3-0.1-2.7-0.4-4.1c-0.3-1.4-0.8-2.8-1.5-4.3
						C872.1,475.6,873.1,476.8,873.7,477.1z"/>
					<path id="XMLID_8_" class="st3" d="M720.1,190.7l1.5,1.6C721.2,191.8,720.7,191.3,720.1,190.7z"/>
					<path id="XMLID_10_" class="st3" d="M525.3,119.5c1.6,0,2.3-0.2,2.4-0.5C526.2,119,524.9,119.2,525.3,119.5z"/>
					<path id="XMLID_11_" class="st3" d="M489.3,115.2c0.8,0.1,1.4,0.1,2.1,0.2C490.6,115.1,489.8,114.9,489.3,115.2z"/>
					<path id="XMLID_12_" class="st3" d="M720.1,190.7l-4-4.1C715.1,187.3,718,189,720.1,190.7z"/>
					<path id="XMLID_13_" class="st3" d="M860.2,432.9c0.4,1.1,0.8,2,1.4,2.7c-0.3-0.9-0.6-1.8-0.8-2.7
						C860.6,432.9,860.4,432.9,860.2,432.9z"/>
					<path id="XMLID_14_" class="st3" d="M790.1,251.2l1.1,1.3c0.6,0.1,1.3,0.2,2,0.2L790.1,251.2z"/>
					<path id="XMLID_15_" class="st3" d="M831.8,309.1c-0.7-1.5-3.4-0.5-4.8-0.4c1.4,0.2,2.5,1,3.4,2.1
						C830.9,310.4,831.3,309.9,831.8,309.1z"/>
					<path id="XMLID_16_" class="st3" d="M868.2,415.3l0.8,1.9C868.8,416.7,868.5,415.9,868.2,415.3z"/>
					<path id="XMLID_17_" class="st3" d="M754.8,214.2c0.2-0.4,0.2-0.8,0.2-1.2C754.7,213.3,754.7,213.7,754.8,214.2z"/>
					<path id="XMLID_18_" class="st3" d="M853.3,577.7c0.2,0.1,0.3,0,0.5,0.1C853.6,577.4,853.5,577.2,853.3,577.7z"/>
					<path id="XMLID_19_" class="st3" d="M875.7,500l0.1,1.1c0.5,0.1,1,0.2,1.6,0.2L875.7,500z"/>
					<path id="XMLID_20_" class="st3" d="M422.6,119c0.1,0,0.2,0,0.3,0C424.6,118.4,423.6,118.6,422.6,119z"/>
					<path id="XMLID_21_" class="st3" d="M122.1,581.8c0.5-3.6,1.9-1.1,3.2,1.1c1.4,2.1,2.6,3.8,2.8-1.5
						C127.3,582.6,121.8,573.1,122.1,581.8z"/>
					<path id="XMLID_22_" class="st3" d="M860.3,431.1c-0.2-0.9-0.4-1.8-0.5-2.8C859.9,429.6,860.1,430.4,860.3,431.1z"/>
					<path id="XMLID_23_" class="st3" d="M128.2,581.4L128.2,581.4l0-1.1C128.2,580.7,128.2,581,128.2,581.4z"/>
					<path id="XMLID_24_" class="st3" d="M282.2,180.1c0.5,0.2,1.2,0.2,2,0.1C283.9,180,283.4,179.9,282.2,180.1z"/>
					<path id="XMLID_25_" class="st3" d="M386.1,134.2l-2.8,0.5C384.5,134.6,385.4,134.4,386.1,134.2z"/>
					<path id="XMLID_26_" class="st3" d="M238.5,220.2c-1.3,0.9-1.9,1-3.1,2.7c0.2,0,0.4-0.1,0.7-0.2
						C236.3,221.9,236.9,221.1,238.5,220.2z"/>
					<path id="XMLID_27_" class="st3" d="M197.3,265.5c0.4-0.1,0.8-0.4,1.1-0.5c0.3-0.5,0.7-1.1,1.1-1.6L197.3,265.5z"/>
					<path id="XMLID_28_" class="st3" d="M777,734.7c1.4-0.5,2.6-0.5,3.7-0.4C778.6,733.7,783.7,726.8,777,734.7z"/>
					<path id="XMLID_29_" class="st3" d="M861.8,432.6c-0.8-0.2-1.2-0.6-1.5-1.5c0.1,0.7,0.3,1.3,0.5,1.9
						C861.2,433,861.6,433,861.8,432.6z"/>
					<path id="XMLID_30_" class="st3" d="M252,238l-6.9,6C247.1,242.5,249.6,240.3,252,238z"/>
					<path id="XMLID_31_" class="st3" d="M399.5,849.4l2.1,0.3C400.9,849.3,400.1,849.2,399.5,849.4z"/>
					<path id="XMLID_32_" class="st3" d="M226.8,264.4c-1.8,0.6-3.4,1.5-4.9,2.7c-0.1,0.4-0.2,0.9-0.1,1.3L226.8,264.4z"/>
					<path id="XMLID_33_" class="st3" d="M780.8,734.3C780.8,734.3,780.7,734.3,780.8,734.3C780.7,734.3,780.8,734.3,780.8,734.3z"
						/>
					<path id="XMLID_34_" class="st3" d="M810.1,680.8c-4.4,7.5,1.1,5.4,2,8.1c-4.8,9.4-4.9,2.7-8.4,4.7c-1.3,3-2,6-2.6,8.8
						c-0.7,2.7-1.5,5.2-3,7.2c-0.7-0.1-1.4,0.6-1.4-0.8c-0.4,1.8-1.3,3.8-2.6,5.9c-0.6,1-1.3,2.1-2,3.2c-0.7,1-1.5,2.1-2.3,3.2
						c-3.2,4.2-6.3,8.7-7.5,13c-0.6,0.2-1.1,0.3-1.4,0.2c2.3,0.2,3.9,1.2,4.7,2.3c-2.6,3.1-3.1,7.2-5.9,6.7c1.7-1.8,1.1-2.6,1.2-4
						l-2,3.9c-5.1,0.6,2.8-5.1,0.9-6.8c-2.2,3.4-4.4,7.4-6.6,11.1c-2.3,3.6-4.7,6.7-7.2,8.7c-3.3-1.4,9.3-11.4,1.3-7.4
						c0,0,1.9-1.5,3.8-3.1c1.8-1.6,3.6-3.2,3.6-3.2c-8.8,2,4.1-4.1-4.6-2.9c-1.1,1.1-2.1,2.1-2.9,3c-0.9,0.9-1.7,1.7-2.3,2.5
						c-1.4,1.6-2.4,3-3.5,4.4c-1.1,1.4-2.1,2.8-3.5,4.4c-0.7,0.8-1.4,1.7-2.4,2.5c-0.9,0.9-2,1.8-3.2,2.8c-0.7,3.3,2.6,1.4,1.9,4.7
						c-2.7,3.7-5,5.8-7.1,7c-2.1,1.2-4.1,1.4-5.8,1.7c-3.5,0.4-6.5,0.5-10,6.5c-1.2,3.9,0.4,8-8.4,12.1l0.2-5
						c-4.9,3.6-5.4,5.8-6.3,7.7c-0.8,1.9-1.9,3.7-7.9,6.4c1-2.6,7.1-6.6,5.3-5.9c-8.5,2.3-3.5,5.2-8.7,8.9l-3-2.1
						c-2.7,1.9-5.3,3.9-8,6c-2.7,2.1-5.4,4.4-8.2,6.4c-5.7,4.1-11.5,8.6-17.9,12c0.3-1.3,1.9-3.3-1.5-2.7c-1.9,1.2-3.9,2.4-5.9,3.6
						c-1,0.6-2,1.1-3.1,1.7c-1.1,0.5-2.1,1-3.2,1.5c-4.3,2-8.8,3.8-13.3,5.5c-4.6,1.5-9.2,2.9-13.7,4.2c-1.1,0.3-2.2,0.6-3.4,0.9
						c-1.1,0.3-2.2,0.5-3.4,0.7c-2.2,0.5-4.4,1-6.5,1.4l-5.4,4.9c-1.5,0.5-3.2-0.5-1.7-1.4c-6.9,0.8,0.2,1.9-2.6,3.9
						c-3.7,1.3-5.4-0.2-3.3-1.7c-2.7,1.4-6,3-9.7,4.7c-3.7,1.5-7.8,2.9-12,4.2c-2.1,0.6-4.2,1.3-6.3,1.8c-2.1,0.4-4.2,0.8-6.2,1.1
						c-4,0.6-7.8,0.8-11.1,0.6l2.3-1.3c-1.2,0.1-2.3,0.3-3.3,0.5c-1,0.2-1.8,0.5-2.6,0.8c-1.6,0.7-2.8,1.5-4.1,2.4
						c-2.5,1.6-5,3.1-9.8,2.3l1.7-0.7c-2.7,0.2-5.4,0.3-8.2,0.5c-2.7,0.2-5.5,0.3-8.3,0.6c-1.4,0.1-2.8,0.2-4.1,0.3
						c-1.4,0.1-2.8,0.1-4.1,0.2c-2.7,0.1-5.5,0.2-8.1,0.2c-2.7,0-5.3,0.1-7.9,0.1c-2.6-0.1-5.1-0.3-7.5-0.6c-2.4-0.3-4.8-0.6-7-1
						c-1.1-0.2-2.2-0.4-3.3-0.7c-1.1-0.3-2.1-0.6-3.1-1c-1.7,2-7,1.1-12,0.5c-1.3-0.2-2.5-0.3-3.7-0.4c-1.2-0.1-2.3-0.2-3.3-0.2
						c-2,0.1-3.4,0.6-4,2c-6-2.2-8-3.5-10.6-4.7c-2.6-1.3-5.9-2.7-14.1-5.2c-4.5-1-7.4,2.2-13.2,1.6l0.6-3l-8.3,1.4
						c0,0-0.2-0.3-0.5-0.7c-0.3-0.4-0.7-1-1.1-1.6c-0.8-1.2-1.5-2.3-1.5-2.3l-5.3-0.7c2,0.8,4,2.6,3.4,3.3c-4.2-0.5-9-2.4-12.6-4.4
						c-3.6-2.1-6.1-4.3-5.9-5.1c0,0-4.9-1-9.7-1.9c-0.6-0.1-1.2-0.2-1.8-0.4c-0.6-0.1-1.2-0.3-1.7-0.4c-1.1-0.3-2.2-0.5-3.1-0.8
						c-1.8-0.5-3-0.8-3-0.8c0.9-1,4.1-0.2,6.8,0c-10.9-0.9-0.6-3.7-10.6-4.6c0.9,1.1-1.3,1.4-1.8,1.9c-0.9-0.9-2.3-1.7-3.9-2.7
						c-1.6-1-3.4-2-5.3-2.9c-1.9-1-4-1.9-6.1-2.7c-1-0.4-2.1-0.8-3.1-1.2c-1-0.4-2-0.8-2.9-1.2l2.3-1.2c-3.2-1.8-6.5-3.5-9.9-5.1
						c-1.7-0.8-3.5-1.6-5.2-2.5c-1.7-0.9-3.4-1.8-5.2-2.7c-3.5-1.8-7.1-3.6-10.6-5.6c-3.5-2.1-6.9-4.2-10.4-6.4c4.4,4,1.3,6.4-3,4
						l0.2-3.8c-3.7,0,3.6,3.7-3.2,2.3c-4.9-3.8-1.3-5.4,2.2-4.3l-6.7-3.4c0.2-1,1.9-0.5,3-1.2c-1.8-0.1-4-2.6-6.3-5
						c-1.2-1.2-2.5-2.4-3.7-3.4c-1.3-0.9-2.6-1.6-4-1.5l0.3-1c-3.2-2.5-6-4.6-8.6-6.5c-2.5-1.9-4.7-3.8-6.9-5.4
						c-2.2-1.7-4.3-3.4-6.5-5.1c-2.2-1.8-4.3-3.8-6.8-6c-2.1,1.9-5.5-2.2-10-3.3c-3.1-3.9-6.1-8.2-9.4-12.6
						c-0.4-0.5-0.8-1.1-1.2-1.6c-0.4-0.6-0.8-1.1-1.2-1.7c-0.8-1.1-1.6-2.3-2.5-3.4c-1.7-2.3-3.5-4.5-5.5-6.7
						c-0.8-0.7-1.5-1.2-2-1.6c-0.5-0.4-0.9-0.7-1.3-0.8c-0.7-0.3-1-0.3-1.3-0.1c-0.5,0.4-0.7,1.2-2.5,0.3c1.6-2.1-5.9-11.2-0.6-7.6
						c-1.1-1.4-2.2-2.6-3.1-3.7c-1-1.1-1.9-2.2-2.6-3.3c-1.6-2.1-3.1-4-4.7-5.9c-1.6-1.9-3.3-4-5.4-6.3c-1.9-2.5-4.2-5.3-7.1-8.8
						c0.2,2.2,1,4.3-0.4,3.8c-2.1-2.6-3.1-6.9-1.8-7.1l0.7,0.6c-6.9-7.6-11.2-18.8-14.6-29.5c-1.9-5.3-3.3-10.6-5.1-15.3
						c-0.9-2.3-1.9-4.5-3.1-6.5c-1-2-2.2-3.9-3.5-5.5l0.6,0.7c0,0-2.2-3.6-4.3-7.2c-1.1-1.8-2.2-3.6-2.9-5c-0.7-1.4-1.2-2.3-1.2-2.3
						c-2-7.4,3.3,3.7,3-2.2c-2.4-3.9-4.2-7.5-5.6-11c-1.2-3.5-2-6.9-2.8-10.2c-0.4-1.6-0.7-3.2-1.1-4.8l-0.6-2.4
						c-0.2-0.8-0.3-1.6-0.5-2.4c-0.8-3.2-1.7-6.5-3.3-10c0.6-1.6,0.9-3.4,1-5.4c0.2-2,0.1-4.1-0.1-6.4c-0.2-2.3-0.6-4.7-1-7.2
						c-0.2-1.2-0.5-2.5-0.8-3.8c-0.3-1.3-0.4-2.6-0.7-3.9c-0.9-5.2-1.9-10.6-2.5-15.6c-0.3-5-0.3-9.8,0.6-13.7l-1.7,1
						c-2-3.9,0.6-4.9,1-7.8c-1.4,0.5-1.5,4.4-2.5,2c-0.4-4.2-0.6-8.5-0.8-12.8l-0.1-3.2c0-1.1-0.1-2.2,0-3.2
						c0.1-2.2,0.1-4.3,0.2-6.5c0.1-2.2,0.2-4.3,0.3-6.5c0.1-2.2,0.2-4.4,0.5-6.5c0.5-4.3,1.1-8.7,1.7-13l0.5-3.3l0.6-3.2l1.3-6.4
						l1.3-6.4l0.3-1.6l0.4-1.6l0.8-3.2c1.1-4.2,2.1-8.4,3.2-12.6c1.2-4.2,2.5-8.3,3.6-12.4c1.6-6,0-8.3-1.2-10.9
						c-1.2-2.6-1.7-5.5,2.5-12.6l1.9,5.3c0.2-1.6,0.4-3.2,0.7-4.8c0.3-1.6,0.7-3.1,1.1-4.7c0.8-3.1,1.6-6.2,2.6-9.3
						c0.9-3.1,2.1-6.1,3.3-9.2c1.2-3,2.4-6,3.6-9c1.3-3,2.7-5.9,4-8.8c1.3-2.9,2.6-5.9,3.9-8.8c1.4-2.9,2.7-5.8,4-8.7
						c0.6-1.5,1.2-2.9,1.8-4.4l0.9-2.2c0.3-0.7,0.6-1.5,0.9-2.2c-0.1,1.7,0.7,2.2-0.4,4.3c0.6-0.4,1.1-1.1,1.7-1.8
						c0.6-0.7,1.2-1.5,1.7-2.4c1.1-1.7,2.1-3.8,3-5.7c1.7-3.9,2.5-7.6,1.7-8.1c2.3-3.2,2,0.2,4.1-1.3c2-1.8,3.2-5,4.2-7.9
						c1.1-2.9,2.1-5.5,3.9-5.9c0.6-0.2-0.2,1.6-0.6,2.5c1-3.5,9.5-12.9,5.3-11.8c0.8-0.9,1.6-1.7,2.3-2.6c0.3-0.5,0.7-0.9,1-1.4
						c0.4-0.4,0.7-0.9,1-1.3c1.4-1.8,2.6-3.6,3.8-5.3c1.2-1.8,2.4-3.5,3.6-5c0.6-0.8,1.3-1.5,1.9-2.2c0.7-0.7,1.4-1.3,2.2-1.9
						c0.4-2.8,3.3-5.7,5.9-8.2c1.3-1.3,2.4-2.5,3.1-3.7c0.8-1.1,1-2.2,0.5-3.2c2.9,3.6,13.8-9.5,16.9-15c-0.5,2.4,4.7-2.5,4.3,0.4
						c4.7-4.8,9-9.3,6.5-10.3c6.5-2,10.4-7,14.4-11.1c1.9-2.1,3.7-4,5.7-5.4c1-0.7,2-1.2,3-1.5c1.1-0.3,2.2-0.4,3.5-0.2
						c3.7-3.4,7.4-6.7,11.1-9.9c3.8-3.1,7.6-6,11.3-8.9c0.9-0.7,1.9-1.5,2.8-2.2c1-0.7,1.9-1.3,2.9-2c1.9-1.3,3.9-2.6,5.8-4
						c1.9-1.3,3.9-2.6,5.8-3.9c2-1.2,4-2.3,5.9-3.5c0.4,1.1-0.5,2.2-2.1,3.4c-0.8,0.6-1.7,1.2-2.7,1.7c-1,0.6-2,1.3-3.1,1.9
						c-4.1,2.5-8.1,5-6.5,6.8c3.5-2.5,6.5-5,9.3-7.3c2.9-2.2,5.6-4.3,8.4-6.3c1.4-1,2.8-2,4.2-3c0.7-0.5,1.5-1,2.2-1.4
						c0.8-0.4,1.5-0.9,2.3-1.3c3.2-1.7,6.7-3.3,10.7-4.8c4.3-1.3-1.5,2.8-2.6,4.1c1.9-1.1,3.7-2.1,5.6-3.1c1.9-1,3.8-1.7,5.7-2.6
						c3.8-1.6,7.7-3.1,11.4-4.6c3.8-1.3,7.6-2.6,11.3-4c1.8-0.7,3.6-1.4,5.4-2.2c1.8-0.7,3.6-1.5,5.4-2.3c0.1,0.4-1.4,1.3-2.8,2.1
						c2.9-1,6.9-1.3,6-3.2l-2.7,1.3c-2.7-0.8-0.3-3.1,2.9-5.4c3.2-2.3,7.2-4.7,7.2-5.5c-3.6,6.9,15.3-2,9,7.1
						c1.8-0.8,4.1-2.3,3.3-3.6c3-0.3,4,0.3,1.5,2.5c2.6-0.9,4.2-1.6,5.5-2.3c1.2-0.6,2-1.1,2.7-1.6c1.5-1,2.8-1.7,7.7-2.6
						c0.1,1-1.8,1.7-2.5,3c2.3-1.4,4.6-2.8,7.3-3.9c0.7-0.3,1.4-0.5,2.2-0.8c0.8-0.2,1.6-0.4,2.4-0.5c1.7-0.3,3.6-0.5,5.7-0.6
						c-0.4,0.7,0.6,1.3-1.8,1.6c3.5-0.5,6.8-1.3,9.9-2.2c0.8-0.2,1.6-0.4,2.3-0.7c0.8-0.2,1.5-0.4,2.3-0.6c1.5-0.4,3.1-0.8,4.6-1.1
						c3.1-0.7,6.3-1.4,9.7-1.9c1.7-0.3,3.4-0.3,5.3-0.3c1.8,0,3.7,0.1,5.7,0.3c-4.5,4.4,5.4,1.3,6.3,5c0,0,0.5-0.1,1.3-0.2
						c0.8-0.1,1.8-0.3,2.9-0.4c2.1-0.2,4.2-0.4,4.2-0.4l-3.4-1.9c3.7,0.1,7.2-0.4,10.6-0.9c1.7-0.2,3.4-0.4,5-0.4
						c0.8,0,1.6,0,2.4,0.1c0.8,0.1,1.6,0.3,2.4,0.5c0,0-1.4,0.3-2.8,0.6c-1.4,0.3-2.8,0.7-2.8,0.7s0.9,0,2.2-0.1
						c1.3,0,3,0.1,4.8,0.1c3.5,0.1,7,0.2,7,0.2l-7.8-2c7.7-1.3-0.5-4.8,9.4-3c-2.1,0.3,7.5,0.5,11.1,3.4c0,0,0,0,0,0
						c3.8-0.7,7.8-1.5,13.2,0.1c1.2,1.4-1.8,3.9-1,4.8c2-1.3,6.3-0.7,10.8-0.2c4.5,0.6,9.1,1,11.6,0c-1.7,0.4-2.1,2.3-1.7,2.8
						l3.5-1.8c3.2,1.6,3.6,2.1,2.7,3.5c10,2.8-2.1-5.4,9.4-0.6c-1,0-0.6,0.5-2.7,0.4c1.5,0.5,3,0.9,4.4,1.3c1.5,0.4,2.9,0.8,4.4,1.2
						c2.9,0.7,5.8,1.4,8.7,2c1.4,0.3,2.9,0.6,4.3,1c1.4,0.4,2.8,0.8,4.2,1.2c2.7,0.9,5.4,1.9,8,3.1c1.9,4.6-9.7-2.3-7.1,1.9
						c2,0.6,3.9,1.1,5.9,1.6c1,0.2,2,0.5,3,0.7l1.5,0.4l1.5,0.4c4.1,1.1,8.1,2.2,12.2,3.3c4.1,1,8.1,2.5,11.9,3.9
						c1.9,0.7,3.8,1.5,5.7,2.3c0.9,0.4,1.9,0.8,2.8,1.3c0.9,0.5,1.8,1,2.6,1.5l-2.5-1.7c2.1-1.9,4.5,0.1,7.4,2.6
						c1.4,1.3,3,2.7,4.6,4c1.7,1.2,3.6,2.1,5.6,2.6c-1.9-0.7-3.7,1.3-2.9,1.1c4.5,3.1,9.4,5.5,15.2,8.1c2.8,1.4,5.8,2.8,9,4.4
						c1.6,0.8,3.3,1.6,5,2.4c0.9,0.4,1.7,0.9,2.6,1.3c0.9,0.5,1.8,1,2.7,1.5l-2.4-0.1c2.3,2.4,5.6,4.9,9,7.5c1.7,1.3,3.5,2.5,5,3.8
						c1.6,1.3,3.1,2.6,4.3,3.8c2.4,0.2,5.4,2.8,4.8-0.2c1.5,2.4,3.2,4.5,4.9,6.5c1.7,2,3.5,3.9,5.4,5.6c1.9,1.7,3.9,3.3,5.9,4.7
						l1.5,1.1l1.5,1.1c1,0.8,2,1.5,3,2.2c2,1.5,4,3,5.9,4.5c1.9,1.5,3.9,3,5.5,4.8c3.4,3.4,6.4,7.2,8.4,11.7
						c-1.6-1.6-4.6-3.1-3.4-1.8c0,0,0.7,0.7,1.9,1.7c1.2,1,2.6,2.4,4,3.8c2.9,2.8,5.7,5.7,5.7,5.7c0.9-2.5-0.3-2.5-1.2-6.3
						c2.4,0.6,6.2,3.4,8.9,6.5c-3-2.3-3.7-1.7-3.5-0.1c0.2,1.6,1.2,4.1,1.7,5.8c0.2-0.9,1.5-0.5,1.9-1.2c2,9.2,4.5-1.8,9.5,9.1
						l-1.3,0.3c0.8,0.8,1.6,1.5,2.5,2.2c0.8,0.7,1.6,1.4,2.4,2.2c1.6,1.5,3.1,3.1,4.3,5.1c-1.1,3.1-3.7-3.1-5.7-2
						c3.9,5.2,11.8,7.6,12.7,14.2c-1.1-1-2.1-2.3-3.2-3.6c-1-1.3-2.3-2.6-3.3-3.5c0.3,1.8,0.6,3.1,0.9,4.2c0.3,1.1,0.5,1.9,0.9,2.7
						c0.6,1.5,1.4,2.6,2.5,4.7l-0.2-0.4c0,0,1.2,2.5,2.4,5c0.6,1.2,1.2,2.5,1.6,3.4c0.2,0.5,0.4,0.9,0.5,1.1
						c0.1,0.3,0.2,0.4,0.2,0.4s-0.2-0.7-0.3-1.4c-0.2-0.7-0.4-1.4-0.4-1.4c2.6,0.8,4.4,2.1,5.9,3.7c1.5,1.6,2.7,3.4,3.8,5.4
						c1.1,2,2.3,4,3.7,6.1c1.3,2.1,3,4.2,5.2,6.1c-8.7-7.6-3-0.4-6.1,0.2c0.5,2.9,1.6,7.1,0.3,6.4c2.3,1.7,2.8,3.9,3.6,6.2
						c0.7,2.4,1.6,4.9,4.7,7.4c-0.8,0.7,2.2,5.1-0.5,5c3.5,5.8,0.9-2.1,2.3-2.1c3.8,4,4.9,10.2,6.6,16.7c0.4,1.6,0.8,3.3,1.3,4.9
						c0.4,1.7,0.9,3.4,1.5,5.1c1.1,3.4,2.7,6.7,5,9.9c0.8,1.4,1.4,2.8,2,4c0.6,1.2,1.2,2.3,1.8,3.3c1.2,2,2.3,3.6,3.4,5.3
						c1.1,1.6,2.2,3.2,3.4,5.2c1.1,1.9,2.1,4.2,3.2,7c-0.3,2.2-1.4,1.6-2.3,0.4c-1-1.2-1.9-2.8-1.9-2.8c0,3.4,0.4,6.2,1.1,9
						c0.6,2.7,1.7,5.4,2.7,8.3c-1.1-1.1-1.5,0.3-2.3,2.4c1.1,4.8,4.1,2.6,3.8,9.3c-1.3-0.9-3.2-2.1-4.7-4.2c0.9,2.8,2.1,5.5,3.3,8.3
						c1,2.8,2.1,5.6,2.9,8.6c-1.5,1.8-3-3.3-4.4-5.2c1.6,6.6,3.8,17.1,6.5,19l0.6-4.4c0.3,2.5-2.2,1.5-2.9-0.3
						c-2.8-5.5-0.1-8.4,0.8-8.9l1.2,4.2c2.6-2.5,1.8-6.9,0.3-11.6c-0.7-2.4-1.9-4.8-2.8-7.2c-0.9-2.4-1.7-4.7-2-6.9l4.7,2.8l-5-8.2
						c0.4-1,1-2,1.8-2.2c0.8-0.2,1.7,0.4,2.4,2.5c0.1-0.8,0.2-1.5,0.2-2.1c0-0.6-0.1-1.1-0.2-1.5c-0.2-0.9-0.5-1.5-0.8-2.1
						c-0.6-1.2-1.2-2.2-0.7-5.1c0.2-0.7,0.5-0.4,0.8,0.1l-2.6-5.7c1.1,1,2.6-1.7,2.9,2.1c-0.1-2.8-0.5-5.3-1.2-7.5
						c-0.7-2.2-1.7-4-2.5-5.7c-1.6-3.3-3-5.8-2-8.2l0.5,0.8c-0.7-1.8-1.3-3.2-1.8-4.2c-0.5-1-1-1.7-1.3-2.1
						c-0.7-0.9-1.2-0.8-1.6-0.6c-0.9,0.4-2,1.4-5.5-3.5c0,0,1.2-2.4,2.3-4.9c1.2-2.5,2.3-4.9,2.3-4.9l-3.4-0.4
						c-0.4-1.5-1.4-4.5,0-4.4c-4.1-4.8-0.9,1.4-4-1.1c0-2-0.6-4.2-1.4-6.4c-0.4-1.1-0.8-2.2-1.3-3.3c-0.4-1.1-0.9-2.2-1.4-3.2
						c-1.9-4.1-3.3-7.6-1.4-9.4c-3.2-1.5,1.4,7.4-3.4,0.6c1.9-2.1,0.7-4.2-1-6.6c-1.8-2.4-4.3-5.1-4.8-8.7c3.4,0.7,5.1,7.2,4.1-0.1
						c-3-0.9-4.3-4-5.3-7.5c-0.5-1.8-1.1-3.6-1.6-5.3c-0.6-1.7-1.3-3.3-2.2-4.5c-1.6,0.8-3.6-1.8-5.8-5.6c-0.3-0.5-0.6-1-0.9-1.5
						c-0.3-0.5-0.6-1-1-1.5c-0.7-1-1.4-2.1-2-3.2c-1.4-2.2-2.9-4.3-4.5-6.2c0.6-0.1-1.3-4.3-4.4-9.4c-3-5.1-6.6-11.3-9.1-15.3
						l0.7-0.2c-2,0.4-4.3-1.4-6.8-3.8c-1.2-1.2-2.5-2.7-3.7-4.1c-1.2-1.4-2.6-2.7-3.9-3.9c1.8-1.2,3.4-0.9,6.5,1.4
						c0,0-0.2-0.3-0.6-0.8c-0.4-0.5-0.9-1.1-1.5-1.7c-1.1-1.2-2.2-2.5-2.2-2.5c-1.9-0.4-3.7-1.5-6.8-4.5l3.1-0.6
						c-1.5-1.6-3.1-3.1-4.7-4.6c-1.8-1.4-3.5-2.9-5.4-4.4c-1.8-1.5-3.7-3.1-5.4-4.9c-0.9-0.9-1.8-1.9-2.6-2.9c-0.9-1-1.8-2-2.6-3.2
						c-1.1,0.7-0.8,3.5-1.4,5.3c-0.6,1.8-2.1,2.5-6.9-0.9c0.7-1.3,2-3.3,4.6-1.6c-0.9-0.6-3.4-1.6-4.4-3.5l5,1.6
						c-3-4.2-3.3-0.4-6-3.4c1.4-1.4-1.2-3.1,0.3-3.8c0.9,0.6,2,3,3.7,3.6c-1.5-1.7-3.1-3.7-4.3-5.6c-0.6-1-1.2-1.9-1.6-2.6
						c-0.4-0.8-0.7-1.5-0.8-2.1c-0.4,1.1-1.8,2-4.5,0c-6.7-5.6-0.7-3.7-3.9-7.9c-1.3-0.2-2.7-1.5-4.1-2.3c-1.4-0.9-2.8-1.5-3.8-0.4
						c-2-1.6-1.5-3-1.8-4.2c-1.1-0.4-2.7-1.5-4.4-2.7c-1.8-1.2-3.6-2.6-5.4-3.6c-3.5-2.1-6.2-3.3-5-0.6l0.8,0.8
						c-0.2-0.1-0.4-0.2-0.7-0.3c0,0,0,0,0,0l0,0c-3.4-1.5-6.6-3.5-9.7-5.7c-0.8-0.6-1.5-1.1-2.3-1.6c-0.8-0.5-1.6-1.1-2.3-1.6
						c-1.5-1.1-3.1-2.3-4.6-3.4c-1.5-1.2-3-2.3-4.5-3.5c-0.8-0.6-1.5-1.2-2.3-1.7c-0.8-0.5-1.6-1-2.4-1.6c-3.2-2.1-6.4-4-9.7-5.5
						l0.5-0.9c-4-1.8-8.5-3.7-12.6-5.5c-4.2-1.8-8.1-3.4-11.4-3.7c-2.3-1.1-4.8-4.1-3.3-4.8c-3.2-1-5.1-1.4-7.2-2.1
						c-1.1-0.4-2.1-0.9-3.5-1.6c-1.4-0.7-3-1.6-5.1-2.8c6.9,0.9-1.6-2.3,6.9,1.4c-3.9-2-6.1-3.5-8.6-4.7c-1.3-0.6-2.6-1.1-4.2-1.5
						c-0.8-0.2-1.7-0.4-2.6-0.5c-1-0.2-2-0.3-3.3-0.3c3.9-1.3-5.2-5.1-9.4-5.7l5.2,3.7c-4.5-1.1-8.3-2.7-12.2-4.2l3.1-2.5
						c-2-1.2-4-2-6.1-2.7c-2-0.7-4.1-1.2-6.1-1.6c-4.1-0.8-8-1.2-11.9-1.3c-3.8-0.2-7.5-0.4-11-1.2c-1.7-0.4-3.4-1-5-1.6
						c-1.6-0.7-3.2-1.5-4.7-2.7c-5.1,1.5,9.3,3.3,4.6,5.2c-7.9-1.9-15.6-8.1-18.2-8.5c-5.5-1.6-8.3-0.8-11.1,0.2
						c-1.4,0.5-2.8,1-4.6,1.2c-0.9,0.1-1.9,0.1-3,0c-1.1-0.1-2.4-0.2-3.8-0.4c1.4,1.3,2.5,4.6-6.3,5c-8-1.1-9.7-5.7-4.4-6.3
						c2,0,2.9,0.5,2.8,0.9c2.7-0.2,6.2-0.5,3.1-2l-1.2,1.1c-2-0.8-5.8-1.3-8.8-1.9c-3-0.5-5.2-1-3.8-1.9c-6.3,1-2.7,1.9,1.8,2.6
						c-5.2-1-9.4-1.1-13.6-1.2c-2.1,0-4.2-0.1-6.4-0.1c-2.3,0-4.7,0-7.4-0.2c1.8,0.6,3.4,2,1.6,2c-8-0.5-9.7,0.1-10.8,0.9
						c-0.5,0.4-0.9,0.9-1.8,1.3c-0.9,0.5-2.3,0.9-5,1.2c-6.2-1.3,1.9-4.5-8.8-2.1c-6.7-0.7-1.7-3,0.9-4.2c-2.4,0.8-4.8,1.1-7.1,1.3
						c-2.3,0.2-4.5,0.3-6.6,0.2c-4.2-0.2-7.9-0.8-10.8-0.6l5.1-1.6c-3.1,1-5.7,1.2-8.3,1.7c0,0,0.2,0.1,0.5,0.3
						c0.3,0.2,0.7,0.4,1.2,0.7c0.8,0.5,1.7,1,1.7,1c-0.8,0-1.5,0-2.2,0c-0.7,0-1.3,0.1-1.8,0.1c-1,0-1.7-0.1-1.8-0.6
						c-2.9,2.1,3,3.5-2.8,6.7c-2.1-0.2-5.1,0.6-7.8,1.2c-1.4,0.3-2.6,0.5-3.7,0.5c-1.1,0-1.9-0.2-2.4-0.9c0.8-0.1,1.5-0.2,2.1-0.3
						c0.6-0.1,1.1-0.2,1.5-0.2c0.8-0.2,1.4-0.3,1.7-0.5c0.6-0.4,0.3-0.8-0.1-1.2c-0.8-0.9-1.9-1.9,3.5-3.1c-2,0.8-4.6,1.2-7.7,1.3
						c-0.5-0.2,0.3-0.7,1.1-1.1c-12.8,0-4.9,4.7-17.3,7.5c0.6-1-0.4-1.7-1.7-2c-1.3-0.3-3-0.1-4,0.4c5-1.4,3.1,2.2-1.1,4.8
						c-8.3,0.9-8.3,3.4-12.4,4.4l4.9-0.7c-0.5,1.1-1.8,1.8-3.6,2.6c-1.8,0.8-4,1.7-6.6,2.8c-0.9-1.2,4.6-2.6,2.5-2.5
						c-2.5,2.5-6.1,2.9-10.1,3.2c-2,0.2-4.1,0.3-6.1,0.8c-2,0.5-4,1.3-5.9,2.6c-4.2,0.4-1.6-3-5.2-2.4c-2.1,1.5-3.8,2.3-5.4,2.8
						c-1.6,0.5-2.9,0.8-4.3,1.1c-2.8,0.5-5.7,1.1-10.1,4.1c3.8,0.9,4,0.2-1.7,5.3l14.9-8.6l-8.6,7.7c2.3-1,4.7-2.5,6.8-3.8
						c1.1-0.7,2.1-1.3,3-1.8c0.9-0.5,1.8-0.8,2.6-1c-2.1,1.8-3,2.7-3,3.1c-0.1,0.4,0.8,0.4,2.3,0.8c-3.9-0.2-6.9,1.7-9.9,3.8
						c-1.5,1-3,2.1-4.7,3c-0.8,0.5-1.7,0.8-2.6,1.2c-0.9,0.4-1.9,0.7-2.9,0.9l-2.4-5.4c-3,0.8-5.7,2-8.2,3.5
						c-1.3,0.7-2.5,1.5-3.7,2.3c-0.6,0.4-1.2,0.8-1.8,1.3c-0.6,0.5-1.2,0.9-1.8,1.4c-2.4,1.9-4.8,3.8-7.5,5.7
						c-2.7,1.9-5.9,3.7-9.4,5.6c0,0,1.2-0.5,2.4-0.9c1.2-0.5,2.5-0.9,2.5-0.9c-0.3,1.5-2.3,2.9-4.8,4.4c-2.4,1.4-5.3,3-7.2,4.7
						c-0.7-1.9-3.8-0.8-6.3-0.6c1,1.1-9.6,6.7-8.5,10.7c0,0-1.8,0.5-3.7,1c-0.9,0.3-1.8,0.5-2.5,0.7c-0.7,0.2-1.1,0.4-1.1,0.4
						c-5.4,3.6-7.4,7-9.3,10.3c-0.5,0.8-0.9,1.7-1.5,2.5c-0.5,0.9-1,1.7-1.6,2.6c-1.3,1.8-2.9,3.6-5.3,5.4c1.4-4-3.8-1.4,1.5-8
						c-3.1,2.7-6.2,4.9-5.3,5.9c-1.3,0.3-3.1,2.7-4.9,5.1c-1.8,2.5-3.8,5.1-5.8,5.7c-0.7,1.8,0.4,3.7-3.1,6.8
						c-0.6,0.1-0.7-0.7-0.7-0.7c0.3,0.4-0.8,1.8-1.3,3.1c-0.6,1.3-0.6,2.3,1.5,1.6c-3.3,1.2-6.4,3.4-9.4,6.1c-1.5,1.4-3,2.8-4.5,4.4
						c-1.4,1.6-2.8,3.3-4.2,4.9c-2.7,3.3-5.4,6.6-8.1,9.4c-2.6,2.9-5.2,5.3-7.9,6.6c-1.3,1.9-2.6,3.8-3.9,5.8
						c-1.3,2-2.6,4.1-3.9,6.2c-1.3,2-2.6,4-3.8,6c-0.6,1-1.3,1.9-1.9,2.8c-0.3,0.5-0.6,0.9-0.9,1.3c-0.3,0.5-0.5,0.9-0.8,1.3
						c-0.2-0.8-0.8-0.6,0.2-1.8c-3.8,4.2-3.6,6.5-3.4,8.8c0.1,1.2,0.1,2.4-0.4,3.9c-0.3,0.8-0.6,1.6-1.2,2.5c-0.6,0.9-1.4,2-2.4,3.2
						c-3,2-2.5,0.3-1.7-1.5c0.8-1.8,2.2-3.7,0.6-2.3c-3.3-1-5,2.5-6.9,6.9c-1.8,4.4-4,9.6-7.5,12.6l0.6-2c-2.5,2.4-3.8,6.3-5.1,10.8
						c-1.4,4.4-2.4,9.5-4.9,14.3c0,0-0.3-0.7-0.9-0.5c0,2-0.3,4.3-0.8,6.8c-0.3,1.2-0.5,2.6-0.8,3.9c-0.3,1.3-0.6,2.7-0.9,4.1
						c-0.7,2.8-1.4,5.6-2.2,8.4c-0.4,1.4-0.8,2.7-1.1,4.1c-0.3,1.3-0.6,2.6-0.9,3.9c-1.4-3.9,0.2-4.9-2.8-3.9
						c-1.1,4.5,4.3,0.1,2.1,9c-2.2,2.4-5.6,8.2-8.4,8.3c0,0,0.1-0.5,0.4-1.3c0.2-0.8,0.6-1.8,0.9-2.9c0.7-2.1,1.3-4.2,1.3-4.2
						c-2.4,1.6-3.3,4.3-3.8,7.1c-0.4,2.9-0.4,5.8-1.4,8l-1.3-1c-3.3,13.1,0.8,14.3-2.8,28.1l1.5-1.2c1,4.2,0.3,5.7-0.7,7.2
						c-0.9,1.5-2,2.9-1.3,7l-4.3,1.7c0,1.3,0.1,3.1,0.1,5.2c0.1,2.1,0.3,4.6,0.4,7.1c0.1,2.6,0.3,5.2,0.3,7.8c0,2.6,0.1,5.1,0.1,7.5
						c-1.3-2.7-1.8-6.8-2.3-11.1c-0.4-4.3-0.8-8.8-1.1-12.3c-0.8,5.1-2,17.5-0.4,20.3c-0.1-2.1-0.8-4.8,0.1-6.8
						c2.1,6.6,3.2,14.9,2.3,25c-1.9-0.6-3.1,0.8-3.8,3.3c-0.7,2.5-1,6.1-1.2,10c-0.2,3.9-0.5,8.1-0.7,11.8c-0.3,3.7-1,6.9-2.4,8.8
						c0.4,2.3,0.7,4.5,1,6.8c0.3,2.3,0.6,4.5,0.8,6.8c0.2,2.3,0.3,4.6,0.4,6.9c0,1.2,0.1,2.3,0.1,3.5c0,1.2,0,2.3,0.1,3.5
						c0.3,4.7,0.5,9.5,0.9,14.5c0.1,1.2,0.2,2.5,0.3,3.8c0.2,1.3,0.4,2.5,0.5,3.8c0.4,2.5,0.8,5.1,1.4,7.7c4.5-8.5,1.3,6.1,7,3.6
						c0.6,2.4,1.1,4,1.3,5.1c0.2,1.1,0.2,1.7,0.1,2c0,0-0.1,3.8-0.1,7.7c0,1.9,0,3.9-0.1,5.3c0,0.7,0,1.3,0,1.8c0,0.4,0,0.7,0,0.7
						c-0.4,1.9-1,0.9-1.7-0.6c-0.6-1.5-1.3-3.3-1.9-2.9c0.3,1.3,0.4,2.4,0.5,3.3c0.1,0.9,0.2,1.6,0.2,2.1c0,1.1-0.2,1.6-0.5,2.1
						c-0.6,0.9-1.4,1.3-1.2,5c1.7-2,4.1,2.8,5,9.1l0.3-9.2c1.8,3.4,2.6,6,3,8.2c0.3,2.2,0.3,3.9,0.2,5.7c-0.2,3.5-0.3,7.1,3.7,13.9
						l-3.4-4c1.7,3.6,4.4,10.4,7.5,17c0.8,1.7,1.6,3.3,2.4,4.9c0.9,1.5,1.8,3,2.8,4.3c1.9,2.7,3.8,4.9,5.7,6.1c-0.1,1.6-0.8,4-2.7,1
						c0.9,2.2,1.9,4.4,3,6.6c1.2,2.2,2.5,4.3,3.8,6.5c2.7,4.3,5.4,8.6,8.4,12.6c2.9,4,5.7,8,8.1,11.8c2.5,3.7,4.6,7.3,5.9,10.8
						l-2-0.4c1.1,1.4,2.5,2.3,3.8,3.4c0.6,0.6,1.2,1.2,1.8,1.9c0.5,0.7,1,1.6,1.3,2.7c-0.6,0.2-2-0.3-1.2,1.1
						c1.5,1.2,7.5,6.1,9.5,10.4l-3.7-2.2c0.6,1,1.1,2,1.7,2.9c0.3,0.5,0.6,0.9,0.9,1.4c0.3,0.4,0.6,0.8,0.9,1.3
						c1.3,1.6,2.5,3.1,3.8,4.5c2.6,2.8,5.2,5.1,7.8,7.2c2.7,2.1,5.4,4,8.1,6.1c1.4,1,2.7,2.1,4,3.3c1.4,1.1,2.6,2.4,4.1,3.7
						c-1.6,1.5-0.2,5,2.1,9c1.2,2,2.6,4,4.1,6c1.4,2,2.9,3.6,4.1,5l-0.6,0.3c3.8,3.8,7.5,7.2,11.2,10.1c3.8,2.9,7.6,5.4,11.3,7.9
						c3.7,2.5,7.6,4.6,11.6,6.9c3.9,2.3,7.8,4.8,12.2,7.2c1.8,2.7,4.7,5.7,8.4,8.9c0.5,0.4,0.9,0.8,1.4,1.2c0.5,0.4,1,0.8,1.5,1.1
						c1,0.8,2.1,1.5,3.2,2.3c2.2,1.5,4.5,3.1,6.8,4.7c1.2,0.8,2.4,1.6,3.6,2.4c1.2,0.8,2.5,1.5,3.7,2.2c2.5,1.5,5,3,7.4,4.5
						c4.8,3.1,9.7,5.8,13.8,8.7c-2.3-2.1,2-2.8,5.3-1.6c0.9,0.7,2.2,1.3,3.5,1.8c1.3,0.5,2.8,0.8,4,1.1c2.4,0.7,4.1,1.5,2.9,3.2
						l-1.5-0.7c1.5,5,10.6,8.2,17.6,10.9l3.1-4.5c3.8,3.5,8.7,6.4,14.2,8.4c2.7,1,5.6,2,8.4,2.8c1.4,0.4,2.9,0.8,4.3,1.2
						c1.4,0.3,2.9,0.6,4.3,0.9c2.8,0.6,5.6,1.2,8.3,1.8c1.3,0.3,2.6,0.6,3.8,0.9c0.6,0.2,1.2,0.3,1.8,0.5c0.6,0.1,1.2,0.3,1.8,0.4
						c4.6,1.2,8.3,2.7,10.5,4.9c1.2-0.1,2.5,0,3.8,0.1c1.3,0.1,2.6,0.2,3.9,0.3c2.6,0.1,5.3,0.3,7.7,0l-0.7,2.7c3.2,0.7,6,1.4,8.6,2
						c1.3,0.3,2.6,0.5,3.9,0.7c1.3,0.2,2.6,0.4,3.9,0.6c2.6,0.4,5.3,0.7,8.4,1.1c1.5,0.2,3.2,0.3,4.9,0.5c1.7,0.1,3.6,0.1,5.6,0.2
						l-3.5,1.8c4.6,0.4,7.6-1.4,10.5-3.2c1.5-0.9,2.9-1.9,4.4-2.6c0.8-0.3,1.6-0.6,2.5-0.8c0.9-0.2,1.8-0.3,2.9-0.3l2.3,4.3
						c3.9,0.1,7.9,0.4,11.9,0.8l3,0.3l3,0.1c2,0.1,4,0.2,6,0.2c4,0.1,8,0.2,11.9-0.2c3.9-0.5,7.8-1.3,11.6-2.5
						c-0.2,0.6-0.6,1.9-3.1,2.3c7.4-0.1,29.1-0.3,25.6-5.7c0.2,0.9,1.3,1.3,3,1.3c1.7,0,3.9-0.6,6.4-1.3c2.5-0.7,5.2-1.7,7.7-2.7
						c2.6-1,5-1.9,7-2.8l-0.7,3c6.3-5.1,6.3-6.1,15.7-9.3c1.2-0.1,1.8,0.3,1.8,0.8c-0.1,0.5-0.8,0.9-2.4,0.9c1-0.1,1.8-0.1,2.5-0.3
						c0.7-0.2,1.3-0.4,1.8-0.6c1-0.4,1.7-1,2.5-1.5c1.5-1.1,3.2-2.3,8-2.9l-2.9,2.7c3.9-1,5.7-1.7,6.9-2.5c1.2-0.8,1.9-1.8,3.7-3.5
						c4.4-2.7,14.7-4.2,16.7-2.3c0.5-1.8,3.9-5.4,8.5-6.4c1,0.6-0.4,1.8-1.1,2.4c3.3-0.8,6.1-1.9,8.5-3c2.4-1.2,4.4-2.6,6.3-3.8
						c3.8-2.5,7.2-4.6,11.9-5.4c0.6,0.7,1.3,0.9,2.1,0.8c-2.4,1.3-4.8,2.2-6.9,3.2c-2.1,0.9-4,1.7-5.6,2.4c-3.1,1.3-5,2.1-4.6,1.8
						c1,2.4,9.2-0.8,4.3,5.3c2.9-2.3,6.6-5.7,10.6-8.8c4-3.2,8.1-6.3,12.2-7.6c0.5,0,1,0.1,1.4,0.3l-0.7,0.7
						c1.9-0.7,3.3-1.7,4.6-2.8c2.6-1,4.2-1.6,6.5-2.8c1,0.7,3.3-0.3,5.9-1.8c1.3-0.7,2.6-1.5,3.9-2.3c1.3-0.8,2.4-1.6,3.3-2.2
						c-1.8-2.2,3.2-4.9-2.5-4c0.7-0.2-0.5,0.8-2.9,2.4c-0.5,0.4-1.2,0.8-1.5,1.2c0-0.1,0.1-0.2,0.1-0.4c-2.4,1.5-5.6,3.4-9.3,5.5
						c2.3-3,4.7-5.8,9.7-6.8c1-2.7,2-5.6,2.7-7.1c3.5,0.1,8-1,11.9-1.9c1-0.2,1.9-0.5,2.8-0.7c0.9-0.2,1.7-0.4,2.4-0.6
						c1.5-0.3,2.6-0.4,3.3-0.2c2.5-2.3,5.3-4.6,8.2-6.9c0.7-0.6,1.4-1.2,2.1-1.8l2.1-1.9c1.4-1.3,2.7-2.5,4-3.8c2.6-2.5,5-5,7-7.5
						c1.9-2.6,3.3-5,4-7.4c2.4-3,4.2-1.7,5.9-2c-1.3,1.8-3.3,3.4-3.7,4.8c1.2-1.5,2.8-3.2,4.6-4.9c0.9-0.9,1.8-1.8,2.7-2.6
						c0.9-0.9,1.7-1.9,2.5-2.8c3.2-3.7,5.7-7,5.1-9c4-2.6,3.6-1.1,3.4-0.1c-0.1,0.5-0.2,0.9,0.3,0.6c0.5-0.3,1.6-1.3,3.7-3.8
						l-0.4,2.1c5.5-3.6,9.7-7.7,13.1-12.1c3.3-4.5,5.9-9.3,8.6-14c0.7-1.2,1.3-2.4,2-3.6c0.6-1.2,1.3-2.4,2-3.7
						c1.4-2.4,2.9-4.8,4.6-7.2c1.7-2.3,3.5-4.8,5.6-7.2c2.1-2.4,4.5-4.8,7.3-7.1c-1.5,1.3-2.3,2-3,2c1.3-1.5,2.7-3.1,3.9-4.7
						c1.2-1.6,2.4-3.3,3.6-5c2.3-3.4,4.6-6.8,6.8-10.3c2-3.6,4-7.2,6-10.9c1-1.8,2-3.6,2.9-5.5l2.6-5.6c1.8-3.7,3.6-7.5,5.3-11.2
						c1.6-3.8,3.3-7.5,5.1-11.2c0.9-1.8,1.8-3.7,2.7-5.5c0.8-1.9,1.7-3.7,2.6-5.5c1.8-3.6,3.7-7.2,5.8-10.7c3.9-8.2,2-10,2.1-15.7
						l3.5-0.9c0,0,0-0.2,0-0.4c0-0.3,0-0.7-0.1-1.1c-0.1-0.9-0.2-2.2-0.3-3.5c-0.2-2.5-0.4-5-0.4-5c0.3-3.4,1.3-6.3,2.6-9.1
						c1.2-2.8,2.7-5.5,4.2-8.4c1.5-2.9,2.9-5.9,3.9-9.3c0.9-3.4,1.2-7.2,0.8-11.6l-2.4,1.8c0.4-1.5,0.7-3.4,1-5.4
						c0.1-1,0.3-2.1,0.5-3.1c0.1-0.5,0.2-1,0.2-1.5c0.1-0.5,0.1-1,0.2-1.5c0.4-3.9,1-6.9,2.1-6.2c-0.3-0.7-1.8-2.2-0.5-4.5l1.6,0
						c0,0-0.1-0.9-0.1-2.4c-0.1-1.4-0.1-3.3-0.3-5.2c-0.4-3.8-0.8-7.5-0.8-7.5c1-5.7,2.5-5.1,4-5.3c0.7-0.1,1.5-0.3,2.1-1.6
						c0.6-1.3,1.3-3.6,1.4-7.9c-0.4-6.4-4.1-18.1-5.3-15.7c-0.1,2.5-1.1,6.4-2.7,6.6l-0.7-5.7c-2.3-0.5-4.6-1.9-6.8-1.3
						c-2.2,0.5-4.3,2.9-6.1,9.5l2.6,9.5l-2.5,2.9c0,0,0-0.5,0.1-1.2c0-0.7,0.1-1.7,0.1-2.7c0-2,0-4,0-4c-1.1,2.2-1.2,4-0.9,5.7
						c0.2,1.7,0.9,3.2,1.4,4.9c-1.3,0.7-2.2,1.9-2.8,3.7c0,0,0.9,2.4,1.9,4.8c0.5,1.2,0.9,2.4,1.3,3.3c0.4,0.9,0.6,1.5,0.6,1.5
						c-1,0.5-1.7-0.7-2.5-1.1c-0.8-0.5-1.4-0.3-2.3,2.7c1.5,4.5,4.6-3.7,5,3.6c-2.7,4.3-4.2,2.7-3.1,8.2c-1.3,0.6-1.9-0.6-2.2-2.8
						c0.2,1.2,0.3,2.6,0.2,4c0,1.4,0,2.9-0.2,4.3c-0.2,2.8-0.3,5.4,0.7,6.8c-1.7,2.1-2.2,6-2.9,9.3c-0.7,3.2-1.7,5.8-3.7,5.1
						c0.7,1.6,1.5,8.8,0.7,13.1c-1.7-4.5-2.6-0.5-4.1,4c-1.4,4.5-3.1,9.7-5.5,7.9c0.4,0.9,0.6,1.8,0.7,2.9c0.1,1.1,0.1,2.2-0.1,3.4
						c-0.3,2.4-1,5.1-1.8,7.9c-0.8,2.8-1.7,5.7-2.5,8.6c-0.9,2.8-1.7,5.6-2,8.3c-0.1-0.7-0.4-2,0.1-2.8c-2.5,5.3-4.4,6.3-6.6,9.4
						c3.3,2.2,0.4,10.8,0.5,16.3c-6.4,4.9-2.4-5.9-6.6-5.4c1.5,0.5,1,3.7,0.4,6.5c-0.6,2.8-1.2,5.4,0.5,4.9
						c-4.6,3.8-3.2,3.7-7.3,4.7c3.9,3.1-1.5,4.9-1.2,10.3c-6,5.7-5-0.5-8,7.7c-1.7,1.4-1.9,0.2-1.7-1.3
						C809.6,682.7,810.1,680.8,810.1,680.8z M668.7,826.5C668.7,826.4,668.7,826.4,668.7,826.5c1.5-0.9,2.9-1.7,3.7-2.1
						C671.7,824.8,670.6,825.4,668.7,826.5z M653,834.2c2-0.8,4.4-1.8,6.9-3.1c1,0.6,0.8,1.8-0.8,2.5
						C659.8,832.6,655.8,833.8,653,834.2z M695.7,833.9c-2.3,1.8-3.4,1.8-4.1,1.5c1.2-0.7,2.5-1.6,4.2-2.8c0-0.1,0.1-0.3,0.1-0.5
						C696,832.7,696,833.3,695.7,833.9z"/>
					<path id="XMLID_39_" class="st3" d="M698.3,828.1c0.3-0.3,0.5-0.5,0.9-0.8c-0.6,0.1-1.2,0.2-1.8,0.3c-0.1,0.4-0.3,0.9-0.4,1.3
						C697.4,828.7,697.9,828.4,698.3,828.1z"/>
					<path id="XMLID_40_" class="st3" d="M721.9,192.6l-0.3-0.3c0.2,0.3,0.4,0.5,0.4,0.8C721.9,192.9,721.9,192.8,721.9,192.6z"/>
					<polygon id="XMLID_41_" class="st3" points="418.5,852.8 418.3,853.5 419.9,853.3 					"/>
					<path id="XMLID_42_" class="st3" d="M786.4,266.6c-0.1,0.3-0.1,0.7,0.2,1.5C786.8,267.9,786.6,267.3,786.4,266.6z"/>
					<path id="XMLID_43_" class="st3" d="M810.4,300.8l2.3,5.5C811.9,303.8,811.1,302.1,810.4,300.8z"/>
					<path id="XMLID_44_" class="st3" d="M825.4,329.1c0.6,0.1,1,0.1,1.4,0c0,0,0,0,0-0.1L825.4,329.1z"/>
					<path id="XMLID_45_" class="st3" d="M393.8,151.6c-0.4,0.1-0.8,0.3-1.1,0.5C390.1,153.4,391.9,152.6,393.8,151.6z"/>
					<path id="XMLID_46_" class="st3" d="M542.8,131.8c-1.7,0.3-3.3,0.6-5,0.7C540.5,133,542.6,133.3,542.8,131.8z"/>
					<path id="XMLID_47_" class="st3" d="M252.7,237.4C252.7,237.4,252.7,237.4,252.7,237.4c-0.3,0.2-0.5,0.4-0.8,0.7L252.7,237.4z"
						/>
					<path id="XMLID_48_" class="st3" d="M530.8,131.9c2.7,0.8,4.9,0.8,7,0.6C535.6,132.1,533.1,131.6,530.8,131.9z"/>
					<path id="XMLID_49_" class="st3" d="M864.1,461l0.1,1.5c0.2,0,0.3,0,0.5,0.1c0,0-0.1-0.4-0.3-0.8
						C864.3,461.4,864.1,461,864.1,461z"/>
					<path id="XMLID_50_" class="st3" d="M864.7,462.7l0.5,1.7C865.1,463.6,865,462.9,864.7,462.7z"/>
					<path id="XMLID_51_" class="st3" d="M866.1,467.9l-1-3.5C865.2,465.6,865.3,467.1,866.1,467.9z"/>
					<path id="XMLID_52_" class="st3" d="M858.5,419.2l-1.1-0.2C857.7,419.1,858,419.2,858.5,419.2z"/>
					<path id="XMLID_53_" class="st3" d="M855.2,406.7c0.3,1.5,0.2,3.5,0.3,5.6c0,2.1,0.2,4.3,1,6.4l0.9,0.2c-1-0.8-0.9-3.2-0.9-5.8
						C856.5,410.6,856.5,407.9,855.2,406.7z"/>
					<path id="XMLID_54_" class="st3" d="M849.5,351.1c0,0,0.1,0.2,0.2,0.4c0.1,0.3,0.3,0.7,0.4,1.2c0.3,1,0.7,2.3,1.1,3.7
						c0.8,2.7,1.7,5.3,1.7,5.3c0.3-2.2,0.7-5.1,2.8-0.5c-1.1-7.2-1.4-6.3-2-5.3C853,356.9,852.1,357.9,849.5,351.1z"/>
					<path id="XMLID_55_" class="st3" d="M835.9,319.2c3.2,5.1,1.4-0.8,2-0.8c-1.3-1.5-2.2-2.3-2.5-2.3
						C835,316.1,835.3,317,835.9,319.2z"/>
					<path id="XMLID_56_" class="st3" d="M655.5,151.7l1.6-2.1C652.7,148.1,656.7,150.6,655.5,151.7z"/>
					<path id="XMLID_57_" class="st3" d="M606.9,147.6c0,0,0.9,0.7,1.9,1.4c0.5,0.3,0.9,0.7,1.3,1c0.3,0.3,0.6,0.5,0.6,0.5l2.7-1.6
						c0,0-1.6-0.3-3.2-0.7c-0.8-0.2-1.6-0.3-2.2-0.4C607.3,147.7,606.9,147.6,606.9,147.6z"/>
					<polygon id="XMLID_58_" class="st3" points="584.4,122.9 586.5,123 578.7,122.2 					"/>
					<path id="XMLID_59_" class="st3" d="M202.1,255.3l3.3,0.9C207.1,253.5,204.7,250.7,202.1,255.3z"/>
					<path id="XMLID_60_" class="st3" d="M126.2,419.8c-1,0.8-2.1,2.4-2.6,4.3c-0.6,1.9-0.8,3.9-0.3,5.6c0.5-2,1.2-4,1.8-5.7
						C125.5,422.3,126.2,420.9,126.2,419.8z"/>
					<path id="XMLID_61_" class="st3" d="M365.9,863.6l-3.8-0.4c0,0,1.7,0.4,3.4,0.9c0.8,0.2,1.7,0.4,2.4,0.5
						c0.6,0.1,1.1,0.2,1.1,0.2s-0.8-0.3-1.5-0.6c-0.4-0.1-0.8-0.3-1-0.4C366.1,863.7,365.9,863.6,365.9,863.6z"/>
				</g>
			</g>
		</g>
	</g>
</g>
</svg>
